<?xml version="1.0" standalone="no"?><!DOCTYPE svg PUBLIC "-//W3C//DTD SVG 1.1//EN" "http://www.w3.org/Graphics/SVG/1.1/DTD/svg11.dtd"><svg t="1627997662940" class="icon" viewBox="0 0 1024 1024" version="1.1" xmlns="http://www.w3.org/2000/svg" p-id="3225" xmlns:xlink="http://www.w3.org/1999/xlink" width="200" height="200"><defs><style type="text/css"></style></defs><path d="M852.7 174.6H167.2c-19.9 0-34.8-5-34.8-5v-19.9c0-14.9 14.9-29.8 34.8-29.8h755c19.9 0 34.8-14.9 34.8-29.8 0-9.9-14.9-24.8-34.8-24.8h-755c-54.6 0-99.3 34.8-104.3 79.5V875c0 44.7 44.7 84.4 104.3 84.4h685.5c54.6 0 104.3-39.7 104.3-84.4V249.1c0-39.8-44.7-74.5-104.3-74.5zM713.6 810.4c-19.9 0-34.8-14.9-34.8-34.8 0-94.4-74.5-168.9-168.9-168.9S341 681.2 341 775.6c0 19.9-14.9 34.8-34.8 34.8s-34.8-14.9-34.8-34.8c0-94.4 54.6-178.8 139.1-213.6-29.8-29.8-49.7-69.5-49.7-114.2 0-84.4 69.5-154 154-154 84.4 0 159 69.5 159 159 0 44.7-19.9 89.4-54.6 119.2 74.5 39.7 129.1 119.2 129.1 208.6 0.1 14.9-14.8 29.8-34.7 29.8z m0 0" p-id="3226" fill="#ffffff"></path></svg>